/* XPM */
static char * veyon_master_xpm[] = {
"32 32 164 2",
"  	c None",
". 	c #FFFFFF",
"+ 	c #E4E4E4",
"@ 	c #E8E8E8",
"# 	c #E0E0E0",
"$ 	c #686868",
"% 	c #353535",
"& 	c #333333",
"* 	c #676767",
"= 	c #DDDDDD",
"- 	c #E7E7E7",
"; 	c #5D5D5D",
"> 	c #535353",
", 	c #4E4E4E",
"' 	c #4D4D4D",
") 	c #575757",
"! 	c #E6E6E6",
"~ 	c #A9A9A9",
"{ 	c #4F4F4F",
"] 	c #5B5B5B",
"^ 	c #AFAEAE",
"/ 	c #B0AFAF",
"( 	c #505050",
"_ 	c #A1A1A1",
": 	c #727272",
"< 	c #A6A5A5",
"[ 	c #FEFDFD",
"} 	c #AEADAD",
"| 	c #595959",
"1 	c #9A9A9A",
"2 	c #4C4D4D",
"3 	c #9F9F9F",
"4 	c #FDFCFC",
"5 	c #A8A7A7",
"6 	c #4C4C4C",
"7 	c #878787",
"8 	c #C7C7C7",
"9 	c #585858",
"0 	c #999999",
"a 	c #9B9B9B",
"b 	c #D3D3D3",
"c 	c #D1D1D1",
"d 	c #545454",
"e 	c #515151",
"f 	c #E9E9E9",
"g 	c #B7B7B7",
"h 	c #D4D4D4",
"i 	c #FDFDFD",
"j 	c #A4A4A4",
"k 	c #5B5A5A",
"l 	c #A3A3A3",
"m 	c #616161",
"n 	c #7D7D7D",
"o 	c #FBFAFA",
"p 	c #FBFBFB",
"q 	c #7E7D7D",
"r 	c #545353",
"s 	c #636363",
"t 	c #E2E2E2",
"u 	c #929292",
"v 	c #262626",
"w 	c #E3E3E3",
"x 	c #E3E2E2",
"y 	c #262727",
"z 	c #C8C8C8",
"A 	c #3D3D3D",
"B 	c #AAAAAA",
"C 	c #FCFBFB",
"D 	c #AAA9A9",
"E 	c #4E4F4F",
"F 	c #383838",
"G 	c #CDCDCD",
"H 	c #787878",
"I 	c #676666",
"J 	c #F0EFEF",
"K 	c #666666",
"L 	c #CCCCCC",
"M 	c #4B4B4B",
"N 	c #494949",
"O 	c #B5B4B4",
"P 	c #B2B2B2",
"Q 	c #4A4A4A",
"R 	c #CFCFCF",
"S 	c #EFEFEF",
"T 	c #525252",
"U 	c #6F6F6F",
"V 	c #FEFCFC",
"W 	c #6A6B6B",
"X 	c #535252",
"Y 	c #F5F5F5",
"Z 	c #9C9C9C",
"` 	c #DDDCDC",
" .	c #DCDBDB",
"..	c #9E9E9E",
"+.	c #EBEBEB",
"@.	c #898989",
"#.	c #FAF9F9",
"$.	c #868686",
"%.	c #5C5C5C",
"&.	c #F6F6F6",
"*.	c #424242",
"=.	c #E2E1E1",
"-.	c #414141",
";.	c #EDEDED",
">.	c #C1C1C1",
",.	c #A2A2A2",
"'.	c #717171",
").	c #888888",
"!.	c #818080",
"~.	c #646464",
"{.	c #979797",
"].	c #626262",
"^.	c #444444",
"/.	c #4D4C4C",
"(.	c #EAE9E9",
"_.	c #F3F2F2",
":.	c #F4F2F2",
"<.	c #F4F3F3",
"[.	c #4A4B4B",
"}.	c #858585",
"|.	c #363535",
"1.	c #979696",
"2.	c #616060",
"3.	c #737272",
"4.	c #737373",
"5.	c #747474",
"6.	c #747373",
"7.	c #555555",
"8.	c #474747",
"9.	c #605F5F",
"0.	c #484949",
"a.	c #939393",
"b.	c #DBDBDB",
"c.	c #CCCBCB",
"d.	c #5A5A5A",
"e.	c #ADADAD",
"f.	c #E1E1E1",
"g.	c #D5D5D5",
"h.	c #E8E7E7",
"i.	c #8B8B8B",
"j.	c #DFDEDE",
"k.	c #DEDEDE",
"l.	c #878686",
"m.	c #E4E3E3",
"n.	c #C2C2C2",
"o.	c #3A3A3A",
"p.	c #838383",
"q.	c #A7A7A7",
"r.	c #A5A5A5",
"s.	c #A6A6A6",
"t.	c #9D9D9D",
"u.	c #353636",
"v.	c #CDCCCC",
"w.	c #E9E8E8",
"x.	c #848585",
"y.	c #656565",
"z.	c #DFDFDF",
"A.	c #757575",
"B.	c #8A8A8A",
"C.	c #F0F0F0",
"D.	c #606060",
"E.	c #989898",
"F.	c #DADADA",
"G.	c #D9D9D9",
"                                                                ",
"                            . + @ .                             ",
"                          # $ % & * =                           ",
"                        - ; > , ' > ) !                         ",
"                        ~ { ] ^ / ; ( _                         ",
"                      . : , < [ [ } ' | .                       ",
"                        1 2 3 4 [ 5 6 7 .                       ",
"                        8 ' 9 0 a | ' b                         ",
"                        c 6 d e e d { f                         ",
"                        g , d d d d ' h                         ",
"                      i , d d > > d > ; i                       ",
"                      j , d ( k ] ( d , l                       ",
"                    + m d d n o p q r d s t                     ",
"                    u ( d v w 4 4 x y d ( 0                     ",
"                  z A d { B . C C . D E d F G                   ",
"                  H d d I J C C C C J K d d n                   ",
"                L M d N O [ C C C C [ P Q d 6 R                 ",
"              S Q d T U [ C C C C C C V W X > > Y               ",
"              Z e d T ` 4 C C C C C C 4  .e d ( ..              ",
"            +.] d > @.o C C C C C C C C #.$.d d %.f             ",
"          &.$.e d *.+ 4 C C C C C C C C 4 =.-.d e H ;.          ",
"    i >.,.'.{ d e ).. C C C C C C C C C C . !.T d e ~.{.R       ",
"  f ].^.M > d d d /.(._._._.:.<.<.<.<.<.<.(.[.d d d d { A a &.  ",
"  }.T |.1.2.d d d > | 3.4.4.4.5.5.5.5.5.6.| d d d 7.8.9.0., a.  ",
"b.] , c.. C d.> d d d d d d d d d d d d d d d d > > _.. e.{ m f.",
"g.T , h.C . ).e d d ' 6 6 ' 6 6 6 ' ' ' 6 , d d e i.. 4 j.' T = ",
"k.m e l.m.n.o.T ; p._ ~ q.r.s.q.s.l ,.j ~ t.n | > u.v.w.x.e y.z.",
"  {.6 e , , e A.w                             # $ T , { e ' 1   ",
"    {.s e d.B.C.                                C.}.9 T D.E..   ",
"      f.F.#                                         G.g.w       ",
"                                                                ",
"                                                                "};
