<?xml version="1.0" encoding="utf-8"?>
<!-- Generator: Adobe Illustrator 16.0.0, SVG Export Plug-In . SVG Version: 6.00 Build 0)  -->
<!DOCTYPE svg PUBLIC "-//W3C//DTD SVG 1.1//EN" "http://www.w3.org/Graphics/SVG/1.1/DTD/svg11.dtd">
<svg version="1.1"
	 id="svg2" sodipodi:docname="hamonize-configurator.svg" xmlns:sodipodi="http://sodipodi.sourceforge.net/DTD/sodipodi-0.dtd" xmlns:inkscape="http://www.inkscape.org/namespaces/inkscape" xmlns:rdf="http://www.w3.org/1999/02/22-rdf-syntax-ns#" xmlns:svg="http://www.w3.org/2000/svg" xmlns:dc="http://purl.org/dc/elements/1.1/" xmlns:cc="http://creativecommons.org/ns#" inkscape:version="0.91 r13725"
	 xmlns="http://www.w3.org/2000/svg" xmlns:xlink="http://www.w3.org/1999/xlink" x="0px" y="0px" width="128px" height="128px"
	 viewBox="0 0 128 128" enable-background="new 0 0 128 128" xml:space="preserve">
<sodipodi:namedview  id="namedview8" pagecolor="#ffffff" bordercolor="#666666" borderopacity="1" inkscape:zoom="3.6875" inkscape:cx="33.777958" inkscape:cy="45.617809" showgrid="false" inkscape:current-layer="svg2" inkscape:pageopacity="0" inkscape:pageshadow="2" inkscape:window-width="2216" inkscape:window-height="1148" inkscape:window-x="102" inkscape:window-y="170" inkscape:window-maximized="0" gridtolerance="10" objecttolerance="10" guidetolerance="10">
	</sodipodi:namedview>
<rect id="rect4152" x="61.021" y="80.5" fill="#545454" width="57.979" height="11.096"/>
<rect id="rect4152_1_" x="8.001" y="29.25" fill="#545454" width="111.999" height="11.75"/>
<circle id="path5414-7" fill="#545454" cx="80" cy="36" r="16"/>
<g>
	<path fill="#FFFFFF" d="M49.713,112.206c-4.836-0.007-8.38,0.094-13.213-0.042c-4.896-0.138-7.146,2.047-10.951,5.603
		c-4.103,3.246-9.035,2.827-12.602,0.697c-3.031-1.809-6.148-4.705-6.128-10.263c0.016-4.437,1.546-8.525,6.637-11.008
		c2.078-1.014,3.73-0.359,6.86-2.056c1.096-0.523,2.607-3.326,14.974-24.4c2.52-4.295,4.094-8.565,2.857-13.167
		c-1.258-4.684-0.074-8.763,3.379-12.074c3.583-3.436,7.934-4.061,12.529-2.573c6.509,2.108,9.928,9.897,7.059,16.165
		c-1.431,3.119-0.435,5.815,1.348,8.83c5.555,9.94,5.277,9.264,11.117,19.292c2.078,3.623,3.911,7.018,7.037,8.673
		c2.283,1.118,12.082,1.956,12.068,12.029c-0.008,7.613-5.946,14.26-15.601,11.503c-5.728-1.646-6.659-7.361-13.882-7.238
		C58.711,112.257,54.211,112.21,49.713,112.206z"/>
	<g>
		<path fill="#545454" d="M49.641,111.154c-4.216-0.006-8.433,0.081-12.647-0.038c-4.267-0.12-7.729,1.375-10.693,4.424
			c-3.729,3.84-8.986,4.385-13.36,1.593c-4.3-2.746-6.166-7.994-4.329-12.813c1.377-3.615,4.044-6.252,7.918-6.631
			c3.915-0.383,6.195-2.128,8.042-5.522c4.335-7.966,8.942-15.79,13.629-23.554c2.243-3.716,2.44-7.469,1.364-11.481
			c-1.097-4.082-0.065-7.638,2.944-10.524c3.125-2.996,6.917-3.54,10.92-2.244c5.676,1.839,8.658,8.628,6.155,14.092
			c-1.247,2.719-1.244,5.109,0.31,7.74c5.065,8.569,9.996,17.221,14.951,25.861c1.811,3.155,4.599,4.818,8.037,5.716
			c7.916,2.069,11.086,10.525,6.387,16.858c-3.771,5.078-11.338,5.852-15.768,1.302c-3.407-3.502-7.284-5.031-12.104-4.805
			C57.487,111.312,53.561,111.158,49.641,111.154z"/>
		<path fill="#FCFBFB" d="M49.721,101.681c4.117,0.005,8.235,0.018,12.353,0.01c3.978-0.005,5.731-2.934,3.769-6.365
			c-4.14-7.245-8.304-14.476-12.485-21.696c-1.887-3.258-5.302-3.275-7.209-0.011c-4.238,7.253-8.444,14.524-12.617,21.815
			c-1.85,3.229-0.066,6.21,3.669,6.229C41.373,101.686,45.547,101.677,49.721,101.681z"/>
		<path fill="#FCFBFB" d="M84.317,107.83c-0.041-2.188-1.93-3.997-4.09-3.926c-2.053,0.068-3.856,1.938-3.865,4.001
			c-0.006,2.157,1.881,4.024,4.038,3.995C82.613,111.867,84.359,110.057,84.317,107.83z"/>
		<path fill="#FCFBFB" d="M45.659,55.043c-0.018,2.315,1.828,4.152,4.163,4.143c2.24-0.01,4.083-1.777,4.159-3.987
			c0.076-2.224-1.851-4.233-4.103-4.281C47.592,50.871,45.676,52.745,45.659,55.043z"/>
		<path fill="#FCFBFB" d="M19.124,111.766c2.194-0.037,4.025-1.893,4.022-4.07c-0.004-2.239-1.992-4.198-4.199-4.143
			c-2.158,0.053-3.995,1.948-4.005,4.127C14.93,109.962,16.818,111.807,19.124,111.766z"/>
	</g>
</g>
</svg>
