/* XPM */
static char * veyon_configurator_xpm[] = {
"32 32 128 2",
"  	c None",
". 	c #545454",
"+ 	c #525252",
"@ 	c #4E4E4E",
"# 	c #AAAAAA",
"$ 	c #B1B1B1",
"% 	c #DFDFDF",
"& 	c #7D7D7D",
"* 	c #6F6F6F",
"= 	c #7C7C7C",
"- 	c #DDDDDD",
"; 	c #616161",
"> 	c #605F5F",
", 	c #848383",
"' 	c #5C5C5C",
") 	c #7A7A7A",
"! 	c #D8D8D8",
"~ 	c #353535",
"{ 	c #CBCBCB",
"] 	c #FFFEFE",
"^ 	c #A7A7A7",
"/ 	c #676767",
"( 	c #FAFAFA",
"_ 	c #323232",
": 	c #A3A3A3",
"< 	c #EDECEC",
"[ 	c #868686",
"} 	c #797979",
"| 	c #4A4A4A",
"1 	c #505050",
"2 	c #898989",
"3 	c #ECECEC",
"4 	c #333333",
"5 	c #777777",
"6 	c #949494",
"7 	c #393939",
"8 	c #7F8080",
"9 	c #4F4F4F",
"0 	c #C1C1C1",
"a 	c #D6D6D6",
"b 	c #5E5E5E",
"c 	c #C9C8C8",
"d 	c #FFFFFF",
"e 	c #A1A1A1",
"f 	c #434343",
"g 	c #828282",
"h 	c #F8F7F7",
"i 	c #FCFBFB",
"j 	c #F9F8F8",
"k 	c #4D4D4D",
"l 	c #515151",
"m 	c #8C8C8C",
"n 	c #B6B6B6",
"o 	c #464646",
"p 	c #414141",
"q 	c #D2D1D1",
"r 	c #FEFDFD",
"s 	c #CFCECE",
"t 	c #5D5D5D",
"u 	c #AFAFAF",
"v 	c #424242",
"w 	c #717171",
"x 	c #9E9D9D",
"y 	c #838383",
"z 	c #C2C2C2",
"A 	c #ECEBEB",
"B 	c #FDFCFC",
"C 	c #D5D4D4",
"D 	c #414242",
"E 	c #444444",
"F 	c #ABABAB",
"G 	c #606060",
"H 	c #DEDEDE",
"I 	c #4E4F4F",
"J 	c #A8A7A7",
"K 	c #A09F9F",
"L 	c #4F5050",
"M 	c #696969",
"N 	c #E0E0E0",
"O 	c #C6C6C6",
"P 	c #B4B4B4",
"Q 	c #575757",
"R 	c #555555",
"S 	c #3F3F3F",
"T 	c #DCDBDB",
"U 	c #4D4E4E",
"V 	c #535353",
"W 	c #B5B5B5",
"X 	c #C0C0C0",
"Y 	c #3E3F3F",
"Z 	c #494949",
"` 	c #787878",
" .	c #A5A4A4",
"..	c #A6A5A5",
"+.	c #A6A6A6",
"@.	c #737272",
"#.	c #373737",
"$.	c #222323",
"%.	c #5B5B5B",
"&.	c #565656",
"*.	c #727272",
"=.	c #CBCACA",
"-.	c #474747",
";.	c #4C4C4C",
">.	c #E2E1E1",
",.	c #F3F2F2",
"'.	c #666565",
").	c #B8B8B8",
"!.	c #8D8D8D",
"~.	c #9D9D9D",
"{.	c #9E9E9E",
"].	c #9F9F9F",
"^.	c #9B9B9B",
"/.	c #9C9C9C",
"(.	c #7F7F7F",
"_.	c #454545",
":.	c #646464",
"<.	c #747474",
"[.	c #BCBCBC",
"}.	c #252626",
"|.	c #404040",
"1.	c #6C6C6C",
"2.	c #222424",
"3.	c #B7B7B7",
"4.	c #C4C4C4",
"5.	c #B2B2B2",
"6.	c #BDBDBD",
"7.	c #D2D2D2",
"                                                                ",
"                                                                ",
"                                                                ",
"                                                                ",
"                                                                ",
"                                    . . . .                     ",
"                                  . . . . . .                   ",
"    . . . . . . . . . . . . . . . . . . . . . . . . . . . .     ",
"    . . . . . . . . . . . . . . . . . . . . . . . . . . . .     ",
"    . . . . . . . . . + @ . . . . . . . . . . . . . . . . .     ",
"                      # $       . . . . . . . .                 ",
"                    % & * = -     . . . . . .                   ",
"                    ; > , ' )       . . . .                     ",
"                  ! ~ { ] ^ /                                   ",
"                  ( _ : < [ }                                   ",
"                    | 1 + + 2                                   ",
"                  3 4 . + . 5                                   ",
"                  6 + 7 8 9 1 0                                 ",
"                a b 9 c d e 9 f 3                               ",
"                g + 5 h i j k l m                               ",
"              n o p q r i r s 9 t u v . . . . . . . . . . .     ",
"              w 9 x d i i i h } + y : 9 . . . . . . . . . .     ",
"            z k ' A i i i i B C D E F G . . . . . . . . . .     ",
"          H 1 I J B i i i i i d K L M N                         ",
"      O P Q R S % r r r r r r r T U V @ W                       ",
"    X 9 Y Z R + `  .....+.+.+.+.@.V . #.$.%.z                   ",
"    &.*.d =.-.. l ;.;.;.;.;.;.;.V . R >.,.'.5                   ",
"    9 / ,.).| 7 !.e ~.{.].^./.: (._.&.T < :.<.                  ",
"    [.+ }.|.5 -                   O 1._ 2.9 3.                  ",
"      4.5.6.                          5.$ 7.                    ",
"                                                                ",
"                                                                "};
