<?xml version="1.0" encoding="utf-8"?>
<!-- Generator: Adobe Illustrator 16.0.0, SVG Export Plug-In . SVG Version: 6.00 Build 0)  -->
<!DOCTYPE svg PUBLIC "-//W3C//DTD SVG 1.1//EN" "http://www.w3.org/Graphics/SVG/1.1/DTD/svg11.dtd">
<svg version="1.1"
	 id="svg4841" sodipodi:docname="logo.svg" xmlns:sodipodi="http://sodipodi.sourceforge.net/DTD/sodipodi-0.dtd" xmlns:inkscape="http://www.inkscape.org/namespaces/inkscape" xmlns:rdf="http://www.w3.org/1999/02/22-rdf-syntax-ns#" xmlns:svg="http://www.w3.org/2000/svg" xmlns:dc="http://purl.org/dc/elements/1.1/" xmlns:cc="http://creativecommons.org/ns#" inkscape:version="0.91 r13725"
	 xmlns="http://www.w3.org/2000/svg" xmlns:xlink="http://www.w3.org/1999/xlink" x="0px" y="0px" width="128px" height="128px"
	 viewBox="0 0 128 128" enable-background="new 0 0 128 128" xml:space="preserve">
<sodipodi:namedview  units="px" id="base" pagecolor="#ffffff" bordercolor="#666666" borderopacity="1.0" inkscape:zoom="3.959798" inkscape:cx="79.879169" inkscape:cy="46.776418" showgrid="false" fit-margin-top="0" fit-margin-left="0" fit-margin-right="0" inkscape:document-units="px" inkscape:current-layer="layer1" fit-margin-bottom="0" inkscape:pageopacity="0.0" inkscape:pageshadow="2" inkscape:window-width="2560" inkscape:window-height="1339" inkscape:window-x="0" inkscape:window-y="0" inkscape:window-maximized="1">
	</sodipodi:namedview>
<g>
	<path fill="#FFFFFF" d="M63.952,107.54c-7.089-0.009-12.286,0.138-19.371-0.062c-7.178-0.203-10.478,3.002-16.057,8.214
		c-6.015,4.758-13.248,4.143-18.477,1.021c-4.445-2.653-9.014-6.9-8.986-15.045c0.022-6.506,2.267-12.504,9.729-16.142
		c3.048-1.486,5.469-0.527,10.058-3.014c1.608-0.77,3.825-4.878,21.956-35.776c3.694-6.296,6.001-12.558,4.189-19.307
		c-1.845-6.867-0.108-12.847,4.954-17.702c5.254-5.038,11.632-5.954,18.37-3.773c9.544,3.091,14.558,14.512,10.35,23.701
		c-2.098,4.574-0.636,8.526,1.977,12.95c8.144,14.571,7.739,13.581,16.3,28.286c3.047,5.31,5.735,10.285,10.318,12.714
		c3.347,1.639,17.717,2.866,17.694,17.637c-0.012,11.163-8.72,20.907-22.876,16.865c-8.398-2.413-9.762-10.793-20.353-10.612
		C77.145,107.611,70.547,107.546,63.952,107.54z"/>
	<g>
		<path fill="#545454" d="M63.847,105.996c-6.182-0.008-12.365,0.118-18.543-0.056c-6.257-0.177-11.333,2.016-15.68,6.488
			c-5.466,5.626-13.174,6.428-19.588,2.332c-6.304-4.025-9.04-11.72-6.347-18.786c2.019-5.299,5.93-9.166,11.61-9.722
			c5.74-0.56,9.084-3.118,11.792-8.094c6.355-11.681,13.11-23.151,19.983-34.538c3.289-5.447,3.577-10.948,1.999-16.831
			c-1.608-5.987-0.094-11.2,4.318-15.432c4.58-4.392,10.14-5.19,16.011-3.289c8.322,2.694,12.693,12.65,9.024,20.662
			c-1.828,3.987-1.824,7.491,0.453,11.346c7.428,12.567,14.657,25.253,21.921,37.918c2.654,4.629,6.742,7.066,11.784,8.384
			c11.603,3.033,16.256,15.432,9.365,24.716c-5.53,7.445-16.624,8.583-23.119,1.909c-4.996-5.132-10.68-7.376-17.747-7.046
			C75.35,106.228,69.593,106.002,63.847,105.996z"/>
		<path fill="#FCFBFB" d="M63.963,92.106c6.038,0.007,12.075,0.025,18.112,0.015c5.833-0.008,8.401-4.302,5.524-9.333
			c-6.07-10.623-12.175-21.226-18.306-31.813c-2.766-4.774-7.773-4.799-10.569-0.013c-6.213,10.633-12.382,21.294-18.5,31.983
			c-2.711,4.736-0.097,9.106,5.379,9.135C51.725,92.113,57.845,92.1,63.963,92.106z"/>
		<path fill="#FCFBFB" d="M114.687,101.124c-0.062-3.209-2.825-5.863-5.994-5.757c-3.01,0.103-5.654,2.842-5.665,5.868
			c-0.01,3.158,2.757,5.898,5.914,5.854C112.188,107.043,114.747,104.386,114.687,101.124z"/>
		<path fill="#FCFBFB" d="M58.008,23.727c-0.026,3.395,2.68,6.089,6.104,6.074c3.283-0.014,5.988-2.605,6.099-5.844
			c0.11-3.262-2.714-6.209-6.016-6.278C60.844,17.608,58.033,20.357,58.008,23.727z"/>
		<path fill="#FCFBFB" d="M19.103,106.893c3.216-0.053,5.903-2.775,5.897-5.969c-0.005-3.281-2.92-6.156-6.156-6.074
			c-3.165,0.08-5.858,2.855-5.873,6.053C12.955,104.246,15.722,106.951,19.103,106.893z"/>
	</g>
</g>
</svg>
